# xmcd
#
# Track frame offsets:
#	150
#	28129
#	42205
#	101011
#	124799
#
# Disc length: 2915 seconds
#
# Revision: 1
# Processed by: cddbd v1.5.2PL0 Copyright (c) Steve Scherf et al.
# Submitted via: audiograbber 1.83.01
#
DISCID=3c0b6105
DTITLE=Man - Man
DYEAR=1970
DGENRE=Rock
TTITLE0=Romain
TTITLE1=Country Girl
TTITLE2=Would The Christians Wait Five Minutes? The Lions Are Having A Draw
TTITLE3=Daughter Of The Fireplace
TTITLE4=Alchemist
EXTD=
EXTT0=
EXTT1=
EXTT2=
EXTT3=
EXTT4=
PLAYORDER=
